<?xml version="1.0" encoding="UTF-8"?>
<svg width="32" height="32" viewBox="0 0 32 32" fill="none" xmlns="http://www.w3.org/2000/svg">
  <path d="M6.036 20.286c0 1.669-1.353 3.021-3.021 3.021S0 21.955 0 20.286c0-1.669 1.353-3.021 3.021-3.021h3.015v3.021zm1.521 0c0-1.669 1.353-3.021 3.021-3.021s3.021 1.353 3.021 3.021v7.557c0 1.669-1.353 3.021-3.021 3.021s-3.021-1.353-3.021-3.021v-7.557z" fill="#E01E5A"/>
  <path d="M10.578 6.036c-1.669 0-3.021-1.353-3.021-3.021S8.909 0 10.578 0s3.021 1.353 3.021 3.021v3.015h-3.021zm0 1.521c1.669 0 3.021 1.353 3.021 3.021s-1.353 3.021-3.021 3.021H3.021C1.353 13.599 0 12.246 0 10.578s1.353-3.021 3.021-3.021h7.557z" fill="#36C5F0"/>
  <path d="M24.828 10.578c0-1.669 1.353-3.021 3.021-3.021S32 8.909 32 10.578s-1.353 3.021-3.021 3.021h-3.015v-3.021h-.136zm-1.521 0c0 1.669-1.353 3.021-3.021 3.021s-3.021-1.353-3.021-3.021V3.021C17.265 1.353 18.618 0 20.286 0s3.021 1.353 3.021 3.021v7.557z" fill="#2EB67D"/>
  <path d="M20.286 24.828c1.669 0 3.021 1.353 3.021 3.021S21.955 32 20.286 32s-3.021-1.353-3.021-3.021v-3.015h3.021v-.136zm0-1.521c-1.669 0-3.021-1.353-3.021-3.021s1.353-3.021 3.021-3.021h7.557c1.669 0 3.021 1.353 3.021 3.021s-1.353 3.021-3.021 3.021h-7.557z" fill="#ECB22E"/>
</svg> 